<svg width="18" height="18" viewBox="0 0 18 18" fill="none" xmlns="http://www.w3.org/2000/svg">
<path d="M15.12 3.45751C14.3237 2.66102 13.268 2.17676 12.1449 2.0928C11.0218 2.00884 9.90581 2.33076 8.99996 3.00001C8.04571 2.29024 6.85796 1.9684 5.6759 2.09929C4.49385 2.23019 3.40529 2.8041 2.62944 3.70545C1.85359 4.60681 1.44808 5.76865 1.49456 6.95702C1.54105 8.14539 2.03608 9.27201 2.87996 10.11L8.46746 15.6975C8.53719 15.7678 8.62014 15.8236 8.71153 15.8617C8.80292 15.8998 8.90095 15.9194 8.99996 15.9194C9.09897 15.9194 9.197 15.8998 9.2884 15.8617C9.37979 15.8236 9.46274 15.7678 9.53246 15.6975L15.12 10.11C15.557 9.67331 15.9036 9.15477 16.1401 8.58404C16.3766 8.0133 16.4984 7.40156 16.4984 6.78376C16.4984 6.16596 16.3766 5.55422 16.1401 4.98349C15.9036 4.41276 15.557 3.89422 15.12 3.45751V3.45751ZM14.0625 9.05251L8.99996 14.1075L3.93746 9.05251C3.49134 8.60454 3.18744 8.0348 3.06388 7.41477C2.94033 6.79474 3.00261 6.15203 3.24293 5.56726C3.48324 4.98249 3.89089 4.48171 4.41472 4.12773C4.93856 3.77375 5.55526 3.58234 6.18746 3.57751C7.03205 3.57958 7.84129 3.91676 8.43746 4.51501C8.50719 4.58531 8.59014 4.64111 8.68153 4.67918C8.77293 4.71726 8.87095 4.73686 8.96996 4.73686C9.06897 4.73686 9.167 4.71726 9.2584 4.67918C9.34979 4.64111 9.43274 4.58531 9.50246 4.51501C10.1162 3.98317 10.9091 3.70437 11.7206 3.73503C12.5322 3.76569 13.3017 4.10352 13.8736 4.68015C14.4455 5.25678 14.7769 6.02914 14.8008 6.84091C14.8247 7.65267 14.5394 8.4432 14.0025 9.05251H14.0625Z" fill="#06D6A0"/>
</svg>
