<svg width="14" height="14" viewBox="0 0 14 14" fill="none" xmlns="http://www.w3.org/2000/svg">
<path d="M12.44 2.07332C11.7322 1.36533 10.7938 0.934872 9.79546 0.860242C8.79713 0.785612 7.80517 1.07176 6.99998 1.66665C6.15175 1.03575 5.09597 0.749662 4.04526 0.866013C2.99455 0.982363 2.02694 1.49251 1.3373 2.29371C0.647651 3.09492 0.287195 4.12767 0.328514 5.184C0.369834 6.24033 0.809859 7.24177 1.55998 7.98665L6.52665 12.9533C6.58862 13.0158 6.66236 13.0654 6.7436 13.0992C6.82484 13.1331 6.91197 13.1505 6.99998 13.1505C7.08799 13.1505 7.17513 13.1331 7.25636 13.0992C7.3376 13.0654 7.41134 13.0158 7.47331 12.9533L12.44 7.98665C12.8284 7.59847 13.1366 7.13755 13.3468 6.63023C13.557 6.12291 13.6652 5.57914 13.6652 5.02999C13.6652 4.48083 13.557 3.93706 13.3468 3.42974C13.1366 2.92243 12.8284 2.46151 12.44 2.07332ZM11.5 7.04665L6.99998 11.54L2.49998 7.04665C2.10343 6.64845 1.8333 6.14202 1.72347 5.59088C1.61364 5.03974 1.669 4.46844 1.88261 3.94865C2.09623 3.42886 2.45858 2.98372 2.92421 2.66907C3.38984 2.35442 3.93802 2.18428 4.49998 2.17999C5.25072 2.18183 5.97005 2.48154 6.49998 3.01332C6.56196 3.07581 6.63569 3.1254 6.71693 3.15925C6.79817 3.19309 6.88531 3.21052 6.97331 3.21052C7.06132 3.21052 7.14846 3.19309 7.2297 3.15925C7.31094 3.1254 7.38467 3.07581 7.44665 3.01332C7.9922 2.54058 8.69698 2.29275 9.41834 2.32C10.1397 2.34726 10.8238 2.64755 11.3321 3.16011C11.8404 3.67267 12.135 4.35921 12.1563 5.08078C12.1776 5.80235 11.9239 6.50505 11.4466 7.04665H11.5Z" fill="#7D8597"/>
</svg>
