<svg width="16" height="16" viewBox="0 0 16 16" fill="none" xmlns="http://www.w3.org/2000/svg">
<path d="M15.5 4.86501C15.5036 4.81758 15.5036 4.76994 15.5 4.72251L14 0.972509C13.9414 0.824276 13.8371 0.698561 13.7023 0.613601C13.5674 0.52864 13.409 0.488853 13.25 0.500009H2.75C2.59979 0.499864 2.453 0.544825 2.32864 0.62907C2.20428 0.713314 2.10808 0.83296 2.0525 0.972509L0.5525 4.72251C0.548885 4.76994 0.548885 4.81758 0.5525 4.86501C0.527578 4.90676 0.509832 4.95239 0.5 5.00001C0.508348 5.51844 0.650919 6.02586 0.913809 6.47277C1.1767 6.91968 1.55093 7.29083 2 7.55001V14.75C2 14.9489 2.07902 15.1397 2.21967 15.2803C2.36032 15.421 2.55109 15.5 2.75 15.5H13.25C13.4489 15.5 13.6397 15.421 13.7803 15.2803C13.921 15.1397 14 14.9489 14 14.75V7.58001C14.4534 7.31824 14.8304 6.94238 15.0936 6.48976C15.3567 6.03715 15.4968 5.52355 15.5 5.00001C15.507 4.95528 15.507 4.90973 15.5 4.86501ZM8.75 14H7.25V11H8.75V14ZM12.5 14H10.25V10.25C10.25 10.0511 10.171 9.86033 10.0303 9.71968C9.88968 9.57903 9.69891 9.50001 9.5 9.50001H6.5C6.30109 9.50001 6.11032 9.57903 5.96967 9.71968C5.82902 9.86033 5.75 10.0511 5.75 10.25V14H3.5V8.00001C3.9271 7.9976 4.34876 7.90402 4.73679 7.72553C5.12481 7.54704 5.47025 7.28775 5.75 6.96501C6.03153 7.28423 6.37775 7.53989 6.76569 7.71501C7.15362 7.89013 7.57437 7.9807 8 7.9807C8.42563 7.9807 8.84638 7.89013 9.23431 7.71501C9.62225 7.53989 9.96847 7.28423 10.25 6.96501C10.5297 7.28775 10.8752 7.54704 11.2632 7.72553C11.6512 7.90402 12.0729 7.9976 12.5 8.00001V14ZM12.5 6.50001C12.1022 6.50001 11.7206 6.34197 11.4393 6.06067C11.158 5.77936 11 5.39783 11 5.00001C11 4.8011 10.921 4.61033 10.7803 4.46968C10.6397 4.32903 10.4489 4.25001 10.25 4.25001C10.0511 4.25001 9.86032 4.32903 9.71967 4.46968C9.57902 4.61033 9.5 4.8011 9.5 5.00001C9.5 5.39783 9.34196 5.77936 9.06066 6.06067C8.77936 6.34197 8.39782 6.50001 8 6.50001C7.60218 6.50001 7.22064 6.34197 6.93934 6.06067C6.65804 5.77936 6.5 5.39783 6.5 5.00001C6.5 4.8011 6.42098 4.61033 6.28033 4.46968C6.13968 4.32903 5.94891 4.25001 5.75 4.25001C5.55109 4.25001 5.36032 4.32903 5.21967 4.46968C5.07902 4.61033 5 4.8011 5 5.00001C5.00739 5.19699 4.9759 5.3935 4.90735 5.57832C4.83879 5.76313 4.7345 5.93263 4.60043 6.07714C4.46637 6.22165 4.30515 6.33835 4.12599 6.42055C3.94683 6.50276 3.75323 6.54887 3.55625 6.55626C3.15843 6.57118 2.77097 6.42745 2.47911 6.15669C2.3346 6.02263 2.21791 5.86141 2.13571 5.68225C2.0535 5.50309 2.00739 5.30949 2 5.11251L3.26 2.00001H12.74L14 5.11251C13.9716 5.49052 13.8011 5.84375 13.5228 6.10116C13.2445 6.35857 12.8791 6.50108 12.5 6.50001Z" fill="#0138C7"/>
</svg>
