<svg width="18" height="16" viewBox="0 0 18 16" fill="none" xmlns="http://www.w3.org/2000/svg">
<path d="M16.5 0.5H1.5C1.30109 0.5 1.11032 0.579018 0.96967 0.71967C0.829018 0.860322 0.75 1.05109 0.75 1.25V4.25C0.751305 4.71421 0.896159 5.16665 1.1647 5.5453C1.43325 5.92395 1.81234 6.21027 2.25 6.365V14.75C2.25 14.9489 2.32902 15.1397 2.46967 15.2803C2.61032 15.421 2.80109 15.5 3 15.5H15C15.1989 15.5 15.3897 15.421 15.5303 15.2803C15.671 15.1397 15.75 14.9489 15.75 14.75V6.365C16.1877 6.21027 16.5668 5.92395 16.8353 5.5453C17.1038 5.16665 17.2487 4.71421 17.25 4.25V1.25C17.25 1.05109 17.171 0.860322 17.0303 0.71967C16.8897 0.579018 16.6989 0.5 16.5 0.5ZM11.25 2H12.75V4.25C12.75 4.44891 12.671 4.63968 12.5303 4.78033C12.3897 4.92098 12.1989 5 12 5C11.8011 5 11.6103 4.92098 11.4697 4.78033C11.329 4.63968 11.25 4.44891 11.25 4.25V2ZM8.25 2H9.75V4.25C9.75 4.44891 9.67098 4.63968 9.53033 4.78033C9.38968 4.92098 9.19891 5 9 5C8.80109 5 8.61032 4.92098 8.46967 4.78033C8.32902 4.63968 8.25 4.44891 8.25 4.25V2ZM5.25 2H6.75V4.25C6.75 4.44891 6.67098 4.63968 6.53033 4.78033C6.38968 4.92098 6.19891 5 6 5C5.80109 5 5.61032 4.92098 5.46967 4.78033C5.32902 4.63968 5.25 4.44891 5.25 4.25V2ZM3 5C2.80109 5 2.61032 4.92098 2.46967 4.78033C2.32902 4.63968 2.25 4.44891 2.25 4.25V2H3.75V4.25C3.75 4.44891 3.67098 4.63968 3.53033 4.78033C3.38968 4.92098 3.19891 5 3 5ZM10.5 14H7.5V11C7.5 10.6022 7.65804 10.2206 7.93934 9.93934C8.22064 9.65804 8.60218 9.5 9 9.5C9.39782 9.5 9.77936 9.65804 10.0607 9.93934C10.342 10.2206 10.5 10.6022 10.5 11V14ZM14.25 14H12V11C12 10.2044 11.6839 9.44129 11.1213 8.87868C10.5587 8.31607 9.79565 8 9 8C8.20435 8 7.44129 8.31607 6.87868 8.87868C6.31607 9.44129 6 10.2044 6 11V14H3.75V6.365C4.02568 6.26267 4.27998 6.11009 4.5 5.915C4.91252 6.28397 5.44655 6.48795 6 6.48795C6.55345 6.48795 7.08748 6.28397 7.5 5.915C7.91252 6.28397 8.44655 6.48795 9 6.48795C9.55345 6.48795 10.0875 6.28397 10.5 5.915C10.9125 6.28397 11.4466 6.48795 12 6.48795C12.5534 6.48795 13.0875 6.28397 13.5 5.915C13.72 6.11009 13.9743 6.26267 14.25 6.365V14ZM15.75 4.25C15.75 4.44891 15.671 4.63968 15.5303 4.78033C15.3897 4.92098 15.1989 5 15 5C14.8011 5 14.6103 4.92098 14.4697 4.78033C14.329 4.63968 14.25 4.44891 14.25 4.25V2H15.75V4.25Z" fill="#0138C7"/>
</svg>
